<svg xmlns="http://www.w3.org/2000/svg" viewBox="0 0 1200 760" role="img" aria-labelledby="title desc"><title id="title">Children learning together</title><desc id="desc">An original abstract illustration of a welcoming classroom and three children around a table.</desc><defs><linearGradient id="sky" x1="0" x2="1" y1="0" y2="1"><stop stop-color="#E8F4FF"/><stop offset="1" stop-color="#FFF4D8"/></linearGradient><linearGradient id="wall" x1="0" x2="1"><stop stop-color="#173D76"/><stop offset="1" stop-color="#2865D8"/></linearGradient></defs><rect width="1200" height="760" fill="url(#sky)"/><circle cx="1010" cy="108" r="185" fill="#F6C65B" opacity=".7"/><path d="M0 575C180 500 312 548 475 526c191-26 310-130 484-89 88 21 164 79 241 103v220H0Z" fill="#DCEEDF"/><rect x="74" y="76" width="420" height="337" rx="32" fill="url(#wall)"/><path d="M115 132h338M115 188h248M115 244h294" stroke="#BFD5FF" stroke-width="15" stroke-linecap="round" opacity=".8"/><circle cx="420" cy="334" r="27" fill="#F6C65B"/><ellipse cx="686" cy="632" rx="378" ry="80" fill="#1A3150" opacity=".12"/><path d="M333 528h633l-70 163H404Z" fill="#E7A951"/><path d="M407 549h481" stroke="#F9D79D" stroke-width="18" stroke-linecap="round"/><g><circle cx="445" cy="412" r="67" fill="#8E553B"/><path d="M378 406c8-78 127-91 140-7-43-11-79-36-110-10-8 7-17 13-30 17Z" fill="#18314F"/><path d="M372 542c13-94 132-95 151 0v83H372Z" fill="#2865D8"/><circle cx="422" cy="416" r="6" fill="#13243A"/><circle cx="467" cy="416" r="6" fill="#13243A"/><path d="M426 447c14 10 29 10 42-1" fill="none" stroke="#fff" stroke-width="6" stroke-linecap="round"/></g><g><circle cx="710" cy="385" r="72" fill="#D89565"/><path d="M638 381c7-91 149-105 154-5-43-32-108-39-154 5Z" fill="#4F3428"/><path d="M623 542c13-106 151-106 174 0v83H623Z" fill="#087B62"/><circle cx="684" cy="393" r="6" fill="#13243A"/><circle cx="734" cy="393" r="6" fill="#13243A"/><path d="M688 426c15 10 31 10 45-2" fill="none" stroke="#fff" stroke-width="6" stroke-linecap="round"/></g><g><circle cx="930" cy="432" r="61" fill="#6E422F"/><path d="M870 426c10-72 112-88 124-9-42-10-72-28-102-8-7 5-14 11-22 17Z" fill="#1C263A"/><path d="M858 551c12-88 124-91 145 0v74H858Z" fill="#E05C4B"/><circle cx="910" cy="437" r="5" fill="#13243A"/><circle cx="951" cy="437" r="5" fill="#13243A"/><path d="M914 463c12 8 25 8 36-2" fill="none" stroke="#fff" stroke-width="5" stroke-linecap="round"/></g><path d="M535 574l112-35 90 39-105 45Z" fill="#fff"/><path d="M540 573l88 25 104-20" fill="none" stroke="#B9C8DD" stroke-width="5"/><path d="M741 579l76-27 59 29-77 31Z" fill="#FFF8D8"/><path d="M772 567l32 14" stroke="#F1B74C" stroke-width="5"/></svg>
